<svg height="496pt" viewBox="-31 0 496 496" width="496pt" xmlns="http://www.w3.org/2000/svg" xmlns:xlink="http://www.w3.org/1999/xlink"><linearGradient id="a" gradientUnits="userSpaceOnUse" x1="217.2744" x2="217.2744" y1="496" y2="0"><stop offset="0" stop-color="#9f2fff"/><stop offset="1" stop-color="#0bb1d3"/></linearGradient><path d="m190.535156 399.328125c8.777344-8.777344 19.648438-14.914063 31.527344-18.238281 2.9375 7.925781 4.488281 16.375 4.488281 24.964844v25.945312h-16v64h208v-64h-16v-61.113281c0-11.125 2.632813-22.253907 7.601563-32.199219l15.113281-30.214844c6.078125-12.152344 9.285156-25.769531 9.285156-39.359375v-181.113281c0-17.648438-14.351562-32-32-32-5.855469 0-11.269531 1.695312-16 4.449219v-12.449219c0-17.648438-14.351562-32-32-32-6.628906 0-12.796875 2.03125-17.910156 5.503906-4.375-12.480468-16.136719-21.503906-30.089844-21.503906-17.648437 0-32 14.351562-32 32v4.449219c-4.726562-2.753907-10.144531-4.449219-16-4.449219-17.648437 0-32 14.351562-32 32v.433594c-1.421875-.167969-2.816406-.433594-4.285156-.433594-9.691406 0-18.808594 3.777344-25.65625 10.632812l-94.585937 94.582032c-12.328126 12.328125-20.648438 27.875-24.0625 44.96875l-7.433594 37.167968c-2.246094 11.242188-7.222656 21.914063-14.375 30.855469l-56.152344 70.183594 114.335938 123.136719zm212.015625 80.671875h-176v-32h176zm-160-416c0-8.824219 7.175781-16 16-16s16 7.175781 16 16v160h16v-192c0-8.824219 7.175781-16 16-16s16 7.175781 16 16v192h16v-176c0-8.824219 7.175781-16 16-16s16 7.175781 16 16v176h16v-136c0-8.824219 7.175781-16 16-16s16 7.175781 16 16v181.113281c0 11.125-2.628906 22.253907-7.597656 32.199219l-15.113281 30.214844c-6.078125 12.152344-9.289063 25.769531-9.289063 39.359375v61.113281h-144v-25.945312c0-21.320313-7.726562-41.894532-21.773437-57.949219l-21.808594-24.921875c-8.480469-9.695313-14.207031-21.503906-16.585938-34.144532l-19.519531-104.078124c-.207031-1.128907-.3125-2.28125-.3125-3.433594v-2.992188c0-10.214844 8.320313-18.535156 18.546875-18.535156 8.6875 0 16.308594 6.167969 18.125 14.65625l20.855469 97.34375h22.472656v-140.6875l5.371094-5.367188c6.855469-6.855468 10.628906-15.96875 10.628906-25.65625 0-12.496093-6.351562-23.546874-16-30.074218zm-31.078125 98.390625 15.078125-15.078125v78.503906l-11.679687-54.511718c-.679688-3.183594-1.902344-6.136719-3.398438-8.914063zm-142.832031 129.808594c8.75-10.933594 14.832031-23.984375 17.574219-37.710938l7.433594-37.167969c2.800781-13.984374 9.609374-26.703124 19.6875-36.792968l94.585937-94.582032c3.832031-3.832031 8.925781-5.945312 14.34375-5.945312 11.183594 0 20.285156 9.105469 20.285156 20.289062 0 5.414063-2.109375 10.511719-5.941406 14.34375l-35.769531 35.765626c-5.671875-3.984376-12.472656-6.398438-19.742188-6.398438-19.050781 0-34.546875 15.496094-34.546875 34.542969v2.992187c0 2.128906.203125 4.265625.59375 6.367188l2.558594 13.640625-2.175781 2.175781c-16.113282 16.097656-24.976563 37.503906-24.976563 60.28125h16c0-15.71875 5.25-30.617188 14.839844-42.769531l13.273437 70.761719c2.894532 15.457031 9.902344 29.886718 20.265626 41.734374l21.8125 24.929688c2.203124 2.511719 4.144531 5.199219 5.960937 7.960938-13.328125 4.253906-25.503906 11.4375-35.472656 21.40625l-64.453125 64.457031-93.671875-100.871094zm0 0" fill="url(#a)"/></svg>